<svg xmlns="http://www.w3.org/2000/svg" viewBox="0 0 914.2 217.79"><defs><style>.a,.b,.c{stroke:#000;stroke-miterlimit:10;stroke-width:4px;}.b{fill:#fc0d1b;}.c{fill:#fff;}</style></defs><title>アートボード 3</title><path d="M337.34,99.06h24l8.63,45.72,12.63-45.72h23.89l12.66,45.66,8.64-45.66H451.6l-18,81.67H408.85l-14.32-51.42-14.27,51.42H355.51Z"/><path d="M447.57,151.32q0-13.55,9.14-22.31t24.68-8.78q17.78,0,26.85,10.31,7.31,8.29,7.3,20.44,0,13.65-9,22.37t-25.05,8.72q-14.25,0-23.06-7.24Q447.58,165.86,447.57,151.32Zm22.73-.06q0,7.92,3.21,11.7a10.5,10.5,0,0,0,16.1.06q3.13-3.74,3.14-12,0-7.69-3.17-11.45a9.89,9.89,0,0,0-7.86-3.76,10.27,10.27,0,0,0-8.19,3.82Q470.31,143.46,470.3,151.26Z"/><path d="M518.7,121.57h21.22v9.69q3.06-6.28,6.32-8.66a13.34,13.34,0,0,1,8-2.37,23.92,23.92,0,0,1,11,3.12l-7,16.16a17.72,17.72,0,0,0-6.35-1.67,7.83,7.83,0,0,0-6.91,3.67q-3.51,5.19-3.51,19.39v19.83H518.7Z"/><path d="M570.6,99.06h23.17v42.16l16.94-19.65h27.91l-21.23,20.72,22.45,38.44H614.3l-12-23.71-8.54,8.34v15.37H570.6Z"/><path d="M637.22,142.18h33v17.55h-33Z"/><path d="M726.14,167.25H697.49l-4,13.48H667.74l30.69-81.67H726l30.69,81.67H730.22Zm-5.24-17.66-9-29.36L703,149.59Z"/><path d="M763.39,121.57h21.23v9.69q3.06-6.28,6.32-8.66a13.32,13.32,0,0,1,8-2.37,24,24,0,0,1,11,3.12l-7,16.16a17.76,17.76,0,0,0-6.36-1.67,7.81,7.81,0,0,0-6.9,3.67q-3.51,5.19-3.51,19.39v19.83H763.39Z"/><path d="M813.81,99.06H837v42.16l16.94-19.65h27.91l-21.22,20.72,22.45,38.44H857.51l-12-23.71L837,165.36v15.37H813.81Z"/><path d="M890,158H914.2v22.73H890Z"/><path d="M341.47,70a32.81,32.81,0,0,0,.21-4.71V59.72c0-2,0-2.63-.11-3.67a30.18,30.18,0,0,0,4.11.22h18.61a6.32,6.32,0,0,0,3.06-.47l3.16,2.91a3.46,3.46,0,0,0-.57,1.84c-.9,7.52-2.13,11.55-4.61,15.41a24.45,24.45,0,0,1-8.78,7.81,38.38,38.38,0,0,1-5.08,2.37,21.83,21.83,0,0,0-4.28-6,25.25,25.25,0,0,0,7.31-3c5.36-3.38,7.73-7.52,8.45-14.93H348.16v3.16a27.92,27.92,0,0,0,.18,4.61Z"/><path d="M393.34,54.39a5.88,5.88,0,0,0-.43.9c-.07.11-.15.33-.25.54s-.26.62-.33.76c-.47,1-.47,1-.72,1.55l9-.11a5.9,5.9,0,0,0,2.66-.4l3,3a9,9,0,0,0-1.05,2.55A37.93,37.93,0,0,1,397.8,77.4c-3.27,3.74-7.34,6.58-13.24,9.28a16.84,16.84,0,0,0-4.32-5.47,31.5,31.5,0,0,0,12-7.34,25.36,25.36,0,0,0,6-10.22l-9.57.1a33.79,33.79,0,0,1-8.18,9,17.69,17.69,0,0,0-5.11-4.32,28.29,28.29,0,0,0,9.58-11,13.89,13.89,0,0,0,1.55-4.32Z"/><path d="M413.47,70a32.81,32.81,0,0,0,.21-4.71V59.72c0-2,0-2.63-.11-3.67a30.18,30.18,0,0,0,4.11.22h18.61a6.32,6.32,0,0,0,3.06-.47l3.16,2.91a3.46,3.46,0,0,0-.57,1.84c-.9,7.52-2.13,11.55-4.61,15.41a24.45,24.45,0,0,1-8.78,7.81,38.38,38.38,0,0,1-5.08,2.37,21.83,21.83,0,0,0-4.28-6,25.25,25.25,0,0,0,7.31-3c5.36-3.38,7.73-7.52,8.45-14.93H420.16v3.16a27.92,27.92,0,0,0,.18,4.61Z"/><path d="M465.34,54.39a5.88,5.88,0,0,0-.43.9c-.07.11-.15.33-.25.54s-.26.62-.33.76c-.47,1-.47,1-.72,1.55l9-.11a5.9,5.9,0,0,0,2.66-.4l3,3a9,9,0,0,0-1.05,2.55A37.93,37.93,0,0,1,469.8,77.4c-3.27,3.74-7.34,6.58-13.24,9.28a16.84,16.84,0,0,0-4.32-5.47,31.5,31.5,0,0,0,12-7.34,25.36,25.36,0,0,0,6-10.22l-9.57.1a33.79,33.79,0,0,1-8.18,9,17.69,17.69,0,0,0-5.11-4.32,28.29,28.29,0,0,0,9.58-11,13.89,13.89,0,0,0,1.55-4.32Z"/><path d="M483.31,57.6c.9.07,1.29.11,2.19.11s10.66-.26,14-.36a19.77,19.77,0,0,0-.25-3.82h6.37a24.94,24.94,0,0,0-.18,3.67c6,0,8.64-.11,10.08-.25l0,5.9a61.12,61.12,0,0,0-6.48-.18c-1.91,0-2.16,0-3.6,0V68a11.47,11.47,0,0,1,1.44,6c0,4-2.09,7.56-5.94,10a28.79,28.79,0,0,1-7.24,2.91,16.11,16.11,0,0,0-3.42-5.68c3.64-.54,5.69-1.12,7.42-2.2a5.92,5.92,0,0,0,2.66-2.84,6.55,6.55,0,0,1-4.82,1.69c-4.18,0-7.13-2.74-7.13-6.59,0-4.1,3.39-6.91,8.35-6.91a8.07,8.07,0,0,1,2.81.4V63.68a7,7,0,0,0,0-.86c-7.46.21-13.32.54-16.09.93ZM494.5,71a2.14,2.14,0,0,0,2.38,2c1.54,0,2.73-.94,2.73-2.16s-.93-1.87-2.37-1.87C495.65,68.94,494.5,69.8,494.5,71Z"/><path d="M523.88,55a40.25,40.25,0,0,0,5.18.25c3.2,0,7.2-.14,10.83-.43a7.26,7.26,0,0,0,2.74-.5l3,4.35c-.93.54-.93.54-5.79,4.72-1.91,1.62-2.56,2.16-5,3.92a17.38,17.38,0,0,1,4.93-.65c3.38,0,5.8.8,7.7,2.45a8,8,0,0,1,2.63,6.23,9.39,9.39,0,0,1-5,8.46,19.52,19.52,0,0,1-9.53,2.27c-6.09,0-9.8-2.42-9.8-6.41,0-3.35,3-5.76,7.17-5.76a8.29,8.29,0,0,1,8.1,5.62c1.94-.87,2.84-2.09,2.84-3.93,0-2.52-2.45-4.07-6.44-4.07a20.66,20.66,0,0,0-11.09,3.32,26.65,26.65,0,0,0-3.46,2.7l-3.34-5.48c3.31-1.54,10.9-7.45,15.37-11.87-1.91.21-3.35.28-8.43.54-1,0-1.65.1-2.37.18Zm8.92,23.47a1.24,1.24,0,0,0-1.4,1.19c0,1,1.15,1.58,3.1,1.58a5.81,5.81,0,0,0,1.18-.1C535.22,79.45,534.21,78.51,532.8,78.51Z"/><path d="M577.12,69.44a18.83,18.83,0,0,0,5.94-1.15,12.4,12.4,0,0,1,3,8.06,8.94,8.94,0,0,1-3.68,7.13A14.25,14.25,0,0,1,573.63,86c-3.71,0-6.63-1-8.68-2.84-1.72-1.62-2.52-3.74-2.52-6.69,0-.8,0-1.59.11-2.67a38.23,38.23,0,0,1-4.64-.72,8.64,8.64,0,0,0-1.55-.21l.43-5.76A25.22,25.22,0,0,0,563,68.4c0-.36.22-1.59.51-3.6a49.61,49.61,0,0,1-5-.83l-1.29-.25.39-5.58a30.25,30.25,0,0,0,6.52,1.22,32.32,32.32,0,0,0,.54-5.15v-.5l6.66.54a27.6,27.6,0,0,0-1,5.26,35.07,35.07,0,0,0,7.81-.9l-.21,6-2.6.22a55,55,0,0,1-5.9.25,12.68,12.68,0,0,1-.25,1.76c-.07.47-.11.76-.25,2h.75a30.31,30.31,0,0,0,7.45-.83ZM577,73.72c-.36,0-.4,0-1.15.15a48.93,48.93,0,0,1-5.65.36c-.36,0-.61,0-1.62,0,0,.47-.07,1.15-.07,1.73a3.91,3.91,0,0,0,1.11,3.1,5.67,5.67,0,0,0,3.89,1.18c3.92,0,6.26-1.72,6.26-4.6a8.79,8.79,0,0,0-2.66-5.73Z"/><path d="M607.18,76.42c-2.09,4.61-4.5,6.63-7.78,6.63-4.82,0-8.2-4.61-8.2-11.2a16,16,0,0,1,4.14-11,17.22,17.22,0,0,1,13-5.29c4.82,0,9.07,1.62,11.73,4.43a14.29,14.29,0,0,1,3.53,10,15.45,15.45,0,0,1-4.79,11.62c-2.45,2.2-5.29,3.35-10.33,4.14a17.69,17.69,0,0,0-3.06-5.9A18.61,18.61,0,0,0,613,78c2.77-1.47,4.32-4.5,4.32-8.35a8.47,8.47,0,0,0-3.17-7.09,6.05,6.05,0,0,0-3-1.26A50.41,50.41,0,0,1,607.18,76.42ZM601,63.25a11.64,11.64,0,0,0-3.93,8.57c0,2.55,1,4.57,2.24,4.57.9,0,1.83-1.26,2.91-4a46.31,46.31,0,0,0,2.7-11A7.23,7.23,0,0,0,601,63.25Z"/><path d="M652.29,58.89l-.15-.36a23.18,23.18,0,0,0-2.27-4l3.46-1a20.94,20.94,0,0,1,3,5.66l-2.41.82a10.55,10.55,0,0,1,4.93,9.25c0,5.26-3.1,9.83-8.43,12.39-3.63,1.76-7.16,2.59-13.49,3.16a22.13,22.13,0,0,0-2.56-6.51A38.35,38.35,0,0,0,644.62,77a11.15,11.15,0,0,0,6.19-4,6,6,0,0,0,1.15-3.6,4.69,4.69,0,0,0-1.33-3.49c-1.15-1.19-2.81-1.73-5.33-1.73-3.81,0-8.17.79-13.86,2.55a20.92,20.92,0,0,0-3.09,1.12L627,60.73a37.32,37.32,0,0,0,4.75-.79C639,58.43,641.88,58,645.38,58a18.55,18.55,0,0,1,7,1.19Zm6.08-6.8a19.93,19.93,0,0,1,2.92,5.44l-3.39,1.15A24.28,24.28,0,0,0,655,53.13Z"/><path d="M689.47,57.2c-.86.54-1.22.87-4.57,3.85-2.09,1.84-5,4.18-8.82,7-1,.72-1.18.93-1.18,1.26s0,.43,3.38,2.91c3.92,2.85,7,5.33,11,8.82.21.18.54.43,1.11.94l-5.14,5.25a27,27,0,0,0-3.57-3.92A113.18,113.18,0,0,0,671,74.48c-1.8-1.4-2.44-2-2.91-3a6,6,0,0,1-.54-2.38,5.25,5.25,0,0,1,1.33-3.45A25.49,25.49,0,0,1,672.2,63a79,79,0,0,0,9.46-8,12.2,12.2,0,0,0,1.8-2.09Z"/><path d="M710.86,54.11a48.53,48.53,0,0,0-1.48,7.7c2.34-4.21,5.26-6.23,9.11-6.23A8.53,8.53,0,0,1,725,58.86c2,2.52,3,5.79,3,10q0,8.86-5.5,13.18a21.66,21.66,0,0,1-8.21,3.74,34.66,34.66,0,0,1-4.25.83,21.22,21.22,0,0,0-2.88-6.16c10.33-.61,14.51-4,14.51-11.77,0-4.49-1.44-7-4-7a5.28,5.28,0,0,0-3.88,2.09,15.25,15.25,0,0,0-4,8.35,18.42,18.42,0,0,0-.14,3l-6,.07a3.68,3.68,0,0,0,0-.61v-.72c-.08-1.4-.11-3.56-.11-4.57a103.15,103.15,0,0,1,.83-13.14,19.64,19.64,0,0,0,.14-2v-.29Z"/><path d="M736.75,56.77a35,35,0,0,0,7.45.5h1a12.89,12.89,0,0,0,1.12-4l6.59.5a10.22,10.22,0,0,0-.76,1.69c-.47,1.05-.68,1.62-.72,1.7.36,0,.36,0,2.2-.15a53.09,53.09,0,0,0,9.1-1.15l.22,5.72-3.24.33c-2.56.25-7.05.5-10.73.61a19.45,19.45,0,0,1-1.72,2.66,10.58,10.58,0,0,1,4.57-1.08c3,0,4.78,1.16,5.5,3.5l2.52-.87c.11,0,1.08-.36,2.24-.72A14.55,14.55,0,0,0,765,64.94l2.19,5.69A59.31,59.31,0,0,0,758,73.08c0,1,0,1,0,2.59a23.68,23.68,0,0,0,.14,3.09l-5.86.18a32,32,0,0,0,.18-3.81l-.33.14a8.37,8.37,0,0,0-2.52,1.51,2.49,2.49,0,0,0-.93,1.84c0,1.37,1.33,1.91,4.82,1.91A34.15,34.15,0,0,0,765,78.73l.39,6.48a21.79,21.79,0,0,0-3.2.32,71,71,0,0,1-8.67.54c-4.07,0-6.63-.5-8.57-1.66a5.79,5.79,0,0,1-2.85-5.11,6.65,6.65,0,0,1,1.77-4.53,15.72,15.72,0,0,1,5.18-3.85c.87-.44,1.23-.58,2.67-1.23a1.5,1.5,0,0,0-1.44-.9c-1.84,0-4.32,1.26-6.84,3.46A23.06,23.06,0,0,0,740,75.88l-4.57-4.53a25.63,25.63,0,0,0,3.82-3.74c.79-1,2.23-3.06,2.77-3.93s.54-.9.68-1.15h-1.15c-1.55,0-1.55,0-3.1,0-.5,0-.75,0-1.26,0h-.54Z"/><polygon class="a" points="108.89 38.18 73.54 73.54 38.18 38.18 2.83 73.54 38.18 108.89 73.54 144.25 108.89 179.6 144.25 144.25 108.89 108.89 144.25 73.54 179.6 38.18 144.25 2.83 108.89 38.18"/><rect class="b" x="154.61" y="48.54" width="50" height="50" transform="translate(0.61 148.54) rotate(-45)"/><polygon class="a" points="250.32 38.18 214.96 73.54 179.6 108.89 214.96 144.25 250.32 108.89 285.67 73.54 321.03 38.18 285.67 2.83 250.32 38.18"/><rect class="c" x="154.61" y="69.25" width="50" height="150" transform="translate(-49.39 169.25) rotate(-45)"/><rect class="c" x="189.96" y="13.18" width="50" height="50" transform="translate(35.96 163.18) rotate(-45)"/><rect class="c" x="260.67" y="83.89" width="50" height="50" transform="translate(6.67 233.89) rotate(-45)"/></svg>